# xmcd
#
# Track frame offsets: 
#        150
#        16583
#        37299
#        57206
#        75958
#        98189
#        115910
#        138396
#        159027
#        182669
#        204620
#        225788
#        249334
#        270518
#
# Disc length: 3869 seconds
#
# Revision: 1
# Processed by: cddbd v1.5.2PL0 Copyright (c) Steve Scherf et al.
# Submitted via: ExactAudioCopy v1.0b1
#
DISCID=a10f1b0e
DTITLE=常安 - 往事
DYEAR=2010
DGENRE=Rhythmic Soul
TTITLE0=往事
TTITLE1=約定
TTITLE2=我願意
TTITLE3=味道
TTITLE4=遲到
TTITLE5=勇氣
TTITLE6=認錯
TTITLE7=剪愛
TTITLE8=可惜不是你
TTITLE9=愛上一個不回家的人
TTITLE10=眼淚
TTITLE11=聽說愛情回來過
TTITLE12=其實不想走
TTITLE13=夢見鐵達尼
EXTD=
EXTT0=
EXTT1=
EXTT2=
EXTT3=
EXTT4=
EXTT5=
EXTT6=
EXTT7=
EXTT8=
EXTT9=
EXTT10=
EXTT11=
EXTT12=
EXTT13=
PLAYORDER=
